<svg xmlns="http://www.w3.org/2000/svg" width="200" height="280" viewBox="0 0 200 280">
<defs>
  <linearGradient id="sky" x1="0" y1="0" x2="0" y2="1">
    <stop offset="0%" stop-color="#0a0004"/>
    <stop offset="50%" stop-color="#2a0808"/>
    <stop offset="80%" stop-color="#6a1010"/>
    <stop offset="100%" stop-color="#cc2800"/>
  </linearGradient>
  <radialGradient id="glow" cx="50%" cy="100%" r="60%">
    <stop offset="0%" stop-color="#ff5500" stop-opacity="0.9"/>
    <stop offset="50%" stop-color="#cc2200" stop-opacity="0.4"/>
    <stop offset="100%" stop-color="#880000" stop-opacity="0"/>
  </radialGradient>
  <radialGradient id="eg" cx="50%" cy="68%" r="25%">
    <stop offset="0%" stop-color="#ff8800" stop-opacity="0.55"/>
    <stop offset="100%" stop-color="#cc2200" stop-opacity="0"/>
  </radialGradient>
  <radialGradient id="vig" cx="50%" cy="50%" r="70%">
    <stop offset="0%" stop-color="rgba(0,0,0,0)"/>
    <stop offset="100%" stop-color="rgba(0,0,0,0.55)"/>
  </radialGradient>
  <linearGradient id="fr" x1="0" y1="0" x2="1" y2="1">
    <stop offset="0%" stop-color="#e84820"/>
    <stop offset="50%" stop-color="#aa2000"/>
    <stop offset="100%" stop-color="#601000"/>
  </linearGradient>
  <linearGradient id="lava" x1="0" y1="0" x2="0" y2="1">
    <stop offset="0%" stop-color="#ff8800"/>
    <stop offset="100%" stop-color="#cc2200"/>
  </linearGradient>
</defs>
<rect width="200" height="280" fill="url(#sky)" rx="10"/>
<path d="M0 198 L30 140 L55 168 L75 120 L100 80 L125 118 L148 155 L172 130 L200 170 L200 280 L0 280 Z" fill="#1a0505"/>
<path d="M0 220 L25 175 L50 195 L80 148 L100 112 L120 148 L150 195 L175 170 L200 198 L200 280 L0 280 Z" fill="#280a05"/>
<ellipse cx="100" cy="112" rx="30" ry="20" fill="url(#eg)"/>
<path d="M96 118 Q98 145 94 170 Q92 185 96 200 Q100 215 104 200 Q108 185 106 170 Q102 145 104 118 Z" fill="url(#lava)" opacity="0.85"/>
<path d="M94 155 Q82 162 70 170 Q60 178 55 190 Q68 185 78 178 Q88 170 94 165 Z" fill="url(#lava)" opacity="0.7"/>
<path d="M106 162 Q118 168 130 178 Q140 186 146 196 Q133 190 122 182 Q112 174 106 167 Z" fill="url(#lava)" opacity="0.7"/>
<ellipse cx="100" cy="248" rx="60" ry="14" fill="#cc2200" opacity="0.7"/>
<ellipse cx="100" cy="248" rx="40" ry="9"  fill="#ff5500" opacity="0.6"/>
<ellipse cx="100" cy="248" rx="20" ry="5"  fill="#ff9900" opacity="0.55"/>
<rect x="0" y="255" width="200" height="25" fill="url(#glow)" opacity="0.6"/>
<g opacity="0.5">
  <ellipse cx="100" cy="50"  rx="35" ry="18" fill="#1a0a0a"/>
  <ellipse cx="78"  cy="38"  rx="22" ry="12" fill="#1a0a0a"/>
  <ellipse cx="124" cy="40"  rx="20" ry="11" fill="#1a0a0a"/>
  <ellipse cx="100" cy="32"  rx="28" ry="14" fill="#120606"/>
</g>
<g fill="#ff8800" opacity="0.9">
  <circle cx="88"  cy="88"  r="1.2"/> <circle cx="112" cy="78"  r="1.5"/>
  <circle cx="76"  cy="70"  r="1"/>   <circle cx="128" cy="68"  r="1.3"/>
  <circle cx="95"  cy="62"  r="0.9"/> <circle cx="106" cy="58"  r="1.2"/>
  <circle cx="82"  cy="55"  r="1"/>   <circle cx="118" cy="52"  r="1.4"/>
</g>
<g fill="#ffcc00" opacity="0.7">
  <circle cx="100" cy="72"  r="0.8"/> <circle cx="91"  cy="48"  r="1"/>
  <circle cx="110" cy="44"  r="0.7"/>
</g>
<path d="M0 268 Q15 258 30 265 Q45 272 60 263 L60 280 L0 280 Z"   fill="#1a0505"/>
<path d="M140 266 Q158 256 172 263 Q186 270 200 260 L200 280 L140 280 Z" fill="#1a0505"/>
<rect width="200" height="280" fill="url(#vig)" rx="10"/>
<rect x="5" y="5" width="190" height="270" rx="8" fill="none" stroke="url(#fr)" stroke-width="2.5"/>
<rect x="9" y="9" width="182" height="262" rx="6" fill="none" stroke="#e84820" stroke-width="0.7" stroke-opacity="0.45"/>
<g fill="#cc3010" opacity="0.85">
  <polygon points="9,9 20,9 9,20"/>   <polygon points="191,9 180,9 191,20"/>
  <polygon points="9,271 20,271 9,260"/> <polygon points="191,271 180,271 191,260"/>
</g>
<rect x="52" y="257" width="96" height="16" rx="4" fill="rgba(0,0,0,0.55)"/>
<text x="100" y="268.5" font-size="8.5" font-family="Georgia,serif" font-weight="bold" text-anchor="middle" fill="#ffb090" letter-spacing="2.5">PEAKS</text>
</svg>