<svg xmlns="http://www.w3.org/2000/svg" width="200" height="280" viewBox="0 0 200 280">
<defs>
  <linearGradient id="bg" x1="0" y1="0" x2="1" y2="1">
    <stop offset="0%" stop-color="#1a1000"/><stop offset="50%" stop-color="#0e0a00"/><stop offset="100%" stop-color="#060400"/>
  </linearGradient>
  <radialGradient id="cg" cx="50%" cy="50%" r="38%">
    <stop offset="0%" stop-color="#c08020" stop-opacity="0.5"/><stop offset="100%" stop-color="#0e0800" stop-opacity="0"/>
  </radialGradient>
  <radialGradient id="v" cx="50%" cy="50%" r="68%">
    <stop offset="0%" stop-color="rgba(0,0,0,0)"/><stop offset="100%" stop-color="rgba(0,0,0,0.55)"/>
  </radialGradient>
  <linearGradient id="fr" x1="0" y1="0" x2="1" y2="1">
    <stop offset="0%" stop-color="#e0a020"/><stop offset="100%" stop-color="#604010"/>
  </linearGradient>
</defs>
<rect width="200" height="280" fill="url(#bg)" rx="10"/>
<g fill="#c09020" opacity="0.3">
  <circle cx="18" cy="22" r="0.8"/><circle cx="45" cy="16" r="0.6"/><circle cx="72" cy="30" r="0.9"/>
  <circle cx="130" cy="18" r="0.7"/><circle cx="158" cy="28" r="0.8"/><circle cx="182" cy="14" r="0.6"/>
  <circle cx="24" cy="240" r="0.7"/><circle cx="178" cy="248" r="0.8"/><circle cx="192" cy="260" r="0.6"/>
</g>
<ellipse cx="100" cy="140" rx="68" ry="68" fill="url(#cg)"/>
<circle cx="100" cy="140" r="60" fill="none" stroke="#8a6010" stroke-width="1.2" stroke-opacity="0.7"/>
<circle cx="100" cy="140" r="55" fill="none" stroke="#c09020" stroke-width="0.6" stroke-opacity="0.5"/>
<!-- 8-pointed gold star -->
<polygon points="100,82 107,118 140,108 118,132 140,172 107,162 100,198 93,162 60,172 82,132 60,108 93,118"
         fill="#8a6010" fill-opacity="0.22" stroke="#c09020" stroke-width="1.2" stroke-opacity="0.75"/>
<polygon points="100,96 104,120 126,114 112,130 126,160 104,154 100,178 96,154 74,160 88,130 74,114 96,120"
         fill="none" stroke="#e0b830" stroke-width="0.8" stroke-opacity="0.5"/>
<circle cx="100" cy="140" r="18" fill="#0e0800" stroke="#c09020" stroke-width="1.4"/>
<circle cx="100" cy="140" r="12" fill="none" stroke="#e0c840" stroke-width="0.7" stroke-opacity="0.7"/>
<!-- cross ticks -->
<g stroke="#c09020" stroke-width="1.2" stroke-linecap="round" opacity="0.65">
  <line x1="100" y1="80" x2="100" y2="87"/><line x1="160" y1="140" x2="153" y2="140"/>
  <line x1="100" y1="200" x2="100" y2="193"/><line x1="40" y1="140" x2="47" y2="140"/>
  <line x1="142" y1="98" x2="137" y2="103"/><line x1="142" y1="182" x2="137" y2="177"/>
  <line x1="58" y1="182" x2="63" y2="177"/><line x1="58" y1="98" x2="63" y2="103"/>
</g>
<g stroke="#8a6010" stroke-width="1.4" fill="none" stroke-linecap="round" opacity="0.75">
  <path d="M14 14 L14 28 M14 14 L28 14"/><path d="M186 14 L186 28 M186 14 L172 14"/>
  <path d="M14 266 L14 252 M14 266 L28 266"/><path d="M186 266 L186 252 M186 266 L172 266"/>
</g>
<rect x="18" y="18" width="164" height="244" rx="5" fill="none" stroke="#6a4808" stroke-width="0.8" stroke-opacity="0.4"/>
<g fill="#a07818" opacity="0.7"><circle cx="26" cy="26" r="2"/><circle cx="174" cy="26" r="2"/><circle cx="26" cy="254" r="2"/><circle cx="174" cy="254" r="2"/></g>
<rect width="200" height="280" fill="url(#v)" rx="10"/>
<rect x="5" y="5" width="190" height="270" rx="8" fill="none" stroke="url(#fr)" stroke-width="2.5"/>
</svg>