<svg xmlns="http://www.w3.org/2000/svg" width="200" height="280" viewBox="0 0 200 280">
<defs>
  <linearGradient id="s" x1="0" y1="0" x2="0" y2="1">
    <stop offset="0%" stop-color="#1a1000"/><stop offset="50%" stop-color="#4a2c00"/><stop offset="100%" stop-color="#7a4800"/>
  </linearGradient>
  <radialGradient id="lp" cx="50%" cy="42%" r="35%">
    <stop offset="0%" stop-color="#ffc030" stop-opacity="0.35"/><stop offset="100%" stop-color="#804000" stop-opacity="0"/>
  </radialGradient>
  <radialGradient id="v" cx="50%" cy="50%" r="68%">
    <stop offset="0%" stop-color="rgba(0,0,0,0)"/><stop offset="100%" stop-color="rgba(30,12,0,0.6)"/>
  </radialGradient>
  <linearGradient id="fr" x1="0" y1="0" x2="1" y2="1">
    <stop offset="0%" stop-color="#d09020"/><stop offset="100%" stop-color="#704800"/>
  </linearGradient>
</defs>
<rect width="200" height="280" fill="url(#s)" rx="10"/>
<ellipse cx="100" cy="118" rx="55" ry="55" fill="url(#lp)"/>
<!-- light shafts -->
<polygon points="82,0 88,160 112,160 118,0" fill="rgba(255,180,40,0.06)"/>
<polygon points="48,0 42,160 65,160 74,0" fill="rgba(240,160,20,0.04)"/>
<!-- far trees orange/amber -->
<g fill="#2a1400" opacity="0.9">
  <rect x="8" y="88" width="10" height="112"/><ellipse cx="13" cy="86" rx="14" ry="22" fill="#4a2800"/>
  <rect x="26" y="98" width="8" height="102"/><ellipse cx="30" cy="96" rx="12" ry="18" fill="#3a2000"/>
  <rect x="164" y="90" width="10" height="110"/><ellipse cx="169" cy="88" rx="14" ry="21" fill="#4a2800"/>
  <rect x="182" y="100" width="8" height="100"/><ellipse cx="186" cy="98" rx="11" ry="17" fill="#3a2000"/>
</g>
<!-- mid trees amber foliage -->
<g>
  <rect x="55" y="78" width="12" height="132" fill="#1e0e00"/>
  <ellipse cx="61" cy="74" rx="20" ry="30" fill="#8a4010"/><ellipse cx="61" cy="58" rx="14" ry="20" fill="#aa5818"/>
  <rect x="128" y="80" width="12" height="130" fill="#1e0e00"/>
  <ellipse cx="134" cy="76" rx="20" ry="30" fill="#8a4010"/><ellipse cx="134" cy="60" rx="14" ry="20" fill="#aa5818"/>
</g>
<!-- near trees rich amber -->
<g>
  <rect x="12" y="58" width="16" height="222" fill="#180a00"/>
  <ellipse cx="20" cy="52" rx="26" ry="40" fill="#c06418"/><ellipse cx="20" cy="34" rx="18" ry="26" fill="#d87c28"/>
  <rect x="172" y="60" width="16" height="220" fill="#180a00"/>
  <ellipse cx="180" cy="54" rx="26" ry="40" fill="#c06418"/><ellipse cx="180" cy="36" rx="18" ry="26" fill="#d87c28"/>
</g>
<!-- centre tree -->
<rect x="92" y="146" width="16" height="134" fill="#140800"/>
<ellipse cx="100" cy="142" rx="28" ry="42" fill="#6a3808"/><ellipse cx="100" cy="122" rx="20" ry="28" fill="#8a5010"/>
<!-- falling leaves -->
<g fill="#e08820" opacity="0.65">
  <ellipse cx="70" cy="108" rx="3" ry="1.5" transform="rotate(-20,70,108)"/>
  <ellipse cx="132" cy="116" rx="3" ry="1.5" transform="rotate(15,132,116)"/>
  <ellipse cx="88" cy="88" rx="2.5" ry="1.2" transform="rotate(30,88,88)"/>
  <ellipse cx="114" cy="98" rx="3" ry="1.4" transform="rotate(-10,114,98)"/>
  <ellipse cx="54" cy="132" rx="2.5" ry="1.2" transform="rotate(40,54,132)"/>
  <ellipse cx="148" cy="126" rx="3" ry="1.5" transform="rotate(-25,148,126)"/>
</g>
<!-- floor -->
<path d="M0 242 Q50 228 100 236 Q150 244 200 230 L200 280 L0 280 Z" fill="#3a1e00"/>
<rect width="200" height="280" fill="url(#v)" rx="10"/>
<rect x="5" y="5" width="190" height="270" rx="8" fill="none" stroke="url(#fr)" stroke-width="2.5"/>
<rect x="9" y="9" width="182" height="262" rx="6" fill="none" stroke="#d09020" stroke-width="0.7" stroke-opacity="0.4"/>
<g fill="#a06820" opacity="0.9"><polygon points="9,9 20,9 9,20"/><polygon points="191,9 180,9 191,20"/><polygon points="9,271 20,271 9,260"/><polygon points="191,271 180,271 191,260"/></g>
<rect x="58" y="257" width="84" height="16" rx="4" fill="rgba(0,0,0,0.55)"/>
<text x="100" y="268.5" font-size="8.5" font-family="Georgia,serif" font-weight="bold" text-anchor="middle" fill="#e0a840" letter-spacing="2.5">WOODS</text>
</svg>