<svg xmlns="http://www.w3.org/2000/svg" width="200" height="130" viewBox="0 0 200 130">
<defs>
  <linearGradient id="bg" x1="0" y1="0" x2="1" y2="1">
    <stop offset="0%" stop-color="#020008"/><stop offset="100%" stop-color="#040010"/>
  </linearGradient>
  <filter id="glow"><feGaussianBlur stdDeviation="2" result="blur"/><feMerge><feMergeNode in="blur"/><feMergeNode in="SourceGraphic"/></feMerge></filter>
</defs>
<rect width="200" height="130" fill="url(#bg)" rx="8"/>
<!-- grid lines -->
<g stroke="#8000ff" stroke-width="0.5" stroke-opacity="0.2">
  <line x1="0" y1="65" x2="200" y2="65"/>
  <line x1="0" y1="40" x2="200" y2="40"/><line x1="0" y1="90" x2="200" y2="90"/>
  <line x1="40" y1="0" x2="40" y2="130"/><line x1="80" y1="0" x2="80" y2="130"/>
  <line x1="120" y1="0" x2="120" y2="130"/><line x1="160" y1="0" x2="160" y2="130"/>
</g>
<!-- mini cards with neon borders -->
<rect x="18" y="18" width="28" height="40" rx="3" fill="#06001a"/><rect x="18" y="18" width="28" height="40" rx="3" fill="none" stroke="#00f0e0" stroke-width="1.5" filter="url(#glow)"/>
<rect x="52" y="18" width="28" height="40" rx="3" fill="#12000a"/><rect x="52" y="18" width="28" height="40" rx="3" fill="none" stroke="#ff0060" stroke-width="1.5" filter="url(#glow)"/>
<rect x="86" y="18" width="28" height="40" rx="3" fill="#00040e"/><rect x="86" y="18" width="28" height="40" rx="3" fill="none" stroke="#0080ff" stroke-width="1.5" filter="url(#glow)"/>
<rect x="120" y="18" width="28" height="40" rx="3" fill="#00060a"/><rect x="120" y="18" width="28" height="40" rx="3" fill="none" stroke="#00ff60" stroke-width="1.5" filter="url(#glow)"/>
<rect x="154" y="18" width="28" height="40" rx="3" fill="#040008"/><rect x="154" y="18" width="28" height="40" rx="3" fill="none" stroke="#b000ff" stroke-width="1.5" filter="url(#glow)"/>
<circle cx="32" cy="38" r="5" fill="#00f0e0" opacity="0.7" filter="url(#glow)"/>
<circle cx="66" cy="38" r="5" fill="#ff0060" opacity="0.7" filter="url(#glow)"/>
<circle cx="100" cy="38" r="5" fill="#0080ff" opacity="0.7" filter="url(#glow)"/>
<circle cx="134" cy="38" r="5" fill="#00ff60" opacity="0.7" filter="url(#glow)"/>
<circle cx="168" cy="38" r="5" fill="#b000ff" opacity="0.7" filter="url(#glow)"/>
<text x="100" y="92" font-size="14" font-family="'Courier New',monospace" font-weight="bold" text-anchor="middle" fill="#b000ff" letter-spacing="3" filter="url(#glow)">NEON</text>
<text x="100" y="110" font-size="7.5" font-family="'Courier New',monospace" text-anchor="middle" fill="#6000c0" letter-spacing="1.5">SYNTHWAVE LANDS</text>
<!-- scan lines -->
<g opacity="0.07"><line x1="0" y1="0" x2="200" y2="0" stroke="white" stroke-width="0.5"/><line x1="0" y1="8" x2="200" y2="8" stroke="white" stroke-width="0.5"/><line x1="0" y1="16" x2="200" y2="16" stroke="white" stroke-width="0.5"/><line x1="0" y1="24" x2="200" y2="24" stroke="white" stroke-width="0.5"/><line x1="0" y1="32" x2="200" y2="32" stroke="white" stroke-width="0.5"/><line x1="0" y1="40" x2="200" y2="40" stroke="white" stroke-width="0.5"/><line x1="0" y1="48" x2="200" y2="48" stroke="white" stroke-width="0.5"/><line x1="0" y1="56" x2="200" y2="56" stroke="white" stroke-width="0.5"/><line x1="0" y1="64" x2="200" y2="64" stroke="white" stroke-width="0.5"/><line x1="0" y1="72" x2="200" y2="72" stroke="white" stroke-width="0.5"/><line x1="0" y1="80" x2="200" y2="80" stroke="white" stroke-width="0.5"/><line x1="0" y1="88" x2="200" y2="88" stroke="white" stroke-width="0.5"/><line x1="0" y1="96" x2="200" y2="96" stroke="white" stroke-width="0.5"/><line x1="0" y1="104" x2="200" y2="104" stroke="white" stroke-width="0.5"/><line x1="0" y1="112" x2="200" y2="112" stroke="white" stroke-width="0.5"/><line x1="0" y1="120" x2="200" y2="120" stroke="white" stroke-width="0.5"/><line x1="0" y1="128" x2="200" y2="128" stroke="white" stroke-width="0.5"/></g>
</svg>