<svg xmlns="http://www.w3.org/2000/svg" width="200" height="280" viewBox="0 0 200 280">
<defs>
  <linearGradient id="s" x1="0" y1="0" x2="0" y2="1">
    <stop offset="0%" stop-color="#020008"/><stop offset="55%" stop-color="#060012"/><stop offset="100%" stop-color="#08001a"/>
  </linearGradient>
  <radialGradient id="hor" cx="50%" cy="50%" r="45%">
    <stop offset="0%" stop-color="#ff0060" stop-opacity="0.4"/><stop offset="100%" stop-color="#020008" stop-opacity="0"/>
  </radialGradient>
  <radialGradient id="v" cx="50%" cy="50%" r="70%">
    <stop offset="0%" stop-color="rgba(0,0,0,0)"/><stop offset="100%" stop-color="rgba(0,0,0,0.55)"/>
  </radialGradient>
  <linearGradient id="fr" x1="0" y1="0" x2="1" y2="1">
    <stop offset="0%" stop-color="#ff0060"/><stop offset="100%" stop-color="#880020"/>
  </linearGradient>
  <filter id="glow">
    <feGaussianBlur stdDeviation="2.5" result="blur"/>
    <feMerge><feMergeNode in="blur"/><feMergeNode in="SourceGraphic"/></feMerge>
  </filter>
</defs>
<rect width="200" height="280" fill="url(#s)" rx="10"/>
<!-- horizon glow -->
<ellipse cx="100" cy="140" rx="90" ry="40" fill="url(#hor)"/>
<!-- perspective grid -->
<line x1="0" y1="140" x2="200" y2="140" stroke="#ff0060" stroke-width="0.7" stroke-opacity="0.15"/>
<line x1="5.000000000000004" y1="152" x2="195" y2="152" stroke="#ff0060" stroke-width="0.7" stroke-opacity="0.18"/>
<line x1="9.999999999999998" y1="164" x2="190" y2="164" stroke="#ff0060" stroke-width="0.7" stroke-opacity="0.21"/>
<line x1="15.000000000000002" y1="176" x2="185" y2="176" stroke="#ff0060" stroke-width="0.7" stroke-opacity="0.24"/>
<line x1="19.999999999999996" y1="188" x2="180" y2="188" stroke="#ff0060" stroke-width="0.7" stroke-opacity="0.27"/>
<line x1="25" y1="200" x2="175" y2="200" stroke="#ff0060" stroke-width="0.7" stroke-opacity="0.3"/>
<line x1="30.000000000000004" y1="212" x2="170" y2="212" stroke="#ff0060" stroke-width="0.7" stroke-opacity="0.32999999999999996"/>
<line x1="35" y1="224" x2="165" y2="224" stroke="#ff0060" stroke-width="0.7" stroke-opacity="0.36"/>
<line x1="39.99999999999999" y1="236" x2="160" y2="236" stroke="#ff0060" stroke-width="0.7" stroke-opacity="0.39"/>
<line x1="44.99999999999999" y1="248" x2="155" y2="248" stroke="#ff0060" stroke-width="0.7" stroke-opacity="0.42000000000000004"/>
<line x1="50" y1="260" x2="150" y2="260" stroke="#ff0060" stroke-width="0.7" stroke-opacity="0.44999999999999996"/>
<line x1="54.99999999999999" y1="272" x2="145" y2="272" stroke="#ff0060" stroke-width="0.7" stroke-opacity="0.48"/>
<line x1="60" y1="284" x2="140" y2="284" stroke="#ff0060" stroke-width="0.7" stroke-opacity="0.51"/>
<line x1="65" y1="296" x2="135" y2="296" stroke="#ff0060" stroke-width="0.7" stroke-opacity="0.54"/>
<line x1="100" y1="140" x2="0" y2="280" stroke="#ff0060" stroke-width="0.7" stroke-opacity="0.18"/>
<line x1="100" y1="140" x2="25" y2="280" stroke="#ff0060" stroke-width="0.7" stroke-opacity="0.18"/>
<line x1="100" y1="140" x2="50" y2="280" stroke="#ff0060" stroke-width="0.7" stroke-opacity="0.18"/>
<line x1="100" y1="140" x2="75" y2="280" stroke="#ff0060" stroke-width="0.7" stroke-opacity="0.18"/>
<line x1="100" y1="140" x2="100" y2="280" stroke="#ff0060" stroke-width="0.7" stroke-opacity="0.18"/>
<line x1="100" y1="140" x2="125" y2="280" stroke="#ff0060" stroke-width="0.7" stroke-opacity="0.18"/>
<line x1="100" y1="140" x2="150" y2="280" stroke="#ff0060" stroke-width="0.7" stroke-opacity="0.18"/>
<line x1="100" y1="140" x2="175" y2="280" stroke="#ff0060" stroke-width="0.7" stroke-opacity="0.18"/>
<line x1="100" y1="140" x2="200" y2="280" stroke="#ff0060" stroke-width="0.7" stroke-opacity="0.18"/>
<!-- horizon line -->
<line x1="0" y1="140" x2="200" y2="140" stroke="#ff0060" stroke-width="1.2" stroke-opacity="0.6"/>
<!-- terrain silhouette -->
<!-- mountain silhouettes neon outline -->
  <polyline points="0,140 30,95 55,118 80,72 100,50 120,72 145,118 170,95 200,140"
            fill="none" stroke="#ff0060" stroke-width="1.5" stroke-opacity="0.55" filter="url(#glow)"/>
  <polyline points="0,140 30,95 55,118 80,72 100,50 120,72 145,118 170,95 200,140"
            fill="none" stroke="#ff0060" stroke-width="0.6" stroke-opacity="0.8"/>
  <!-- inner mountain fill -->
  <polygon points="0,140 30,95 55,118 80,72 100,50 120,72 145,118 170,95 200,140 200,141 0,141"
            fill="#ff0060" fill-opacity="0.06"/>
  <!-- lava drip neon -->
  <line x1="100" y1="54" x2="100" y2="140" stroke="#ff4000" stroke-width="1.5" stroke-opacity="0.5" filter="url(#glow)"/>
  <!-- summit glow -->
  <circle cx="100" cy="50" r="6" fill="none" stroke="#ff8040" stroke-width="1.2" stroke-opacity="0.7" filter="url(#glow)"/>
  <circle cx="100" cy="50" r="2" fill="#ff8040" opacity="0.8"/>
<!-- scan lines -->
<g opacity="0.06">
  <line x1="0" y1="0" x2="200" y2="0" stroke="white" stroke-width="0.5"/>
  <line x1="0" y1="8" x2="200" y2="8" stroke="white" stroke-width="0.5"/>
  <line x1="0" y1="16" x2="200" y2="16" stroke="white" stroke-width="0.5"/>
  <line x1="0" y1="24" x2="200" y2="24" stroke="white" stroke-width="0.5"/>
  <line x1="0" y1="32" x2="200" y2="32" stroke="white" stroke-width="0.5"/>
  <line x1="0" y1="40" x2="200" y2="40" stroke="white" stroke-width="0.5"/>
  <line x1="0" y1="48" x2="200" y2="48" stroke="white" stroke-width="0.5"/>
  <line x1="0" y1="56" x2="200" y2="56" stroke="white" stroke-width="0.5"/>
  <line x1="0" y1="64" x2="200" y2="64" stroke="white" stroke-width="0.5"/>
  <line x1="0" y1="72" x2="200" y2="72" stroke="white" stroke-width="0.5"/>
  <line x1="0" y1="80" x2="200" y2="80" stroke="white" stroke-width="0.5"/>
  <line x1="0" y1="88" x2="200" y2="88" stroke="white" stroke-width="0.5"/>
  <line x1="0" y1="96" x2="200" y2="96" stroke="white" stroke-width="0.5"/>
  <line x1="0" y1="104" x2="200" y2="104" stroke="white" stroke-width="0.5"/>
  <line x1="0" y1="112" x2="200" y2="112" stroke="white" stroke-width="0.5"/>
  <line x1="0" y1="120" x2="200" y2="120" stroke="white" stroke-width="0.5"/>
  <line x1="0" y1="128" x2="200" y2="128" stroke="white" stroke-width="0.5"/>
  <line x1="0" y1="136" x2="200" y2="136" stroke="white" stroke-width="0.5"/>
  <line x1="0" y1="144" x2="200" y2="144" stroke="white" stroke-width="0.5"/>
  <line x1="0" y1="152" x2="200" y2="152" stroke="white" stroke-width="0.5"/>
  <line x1="0" y1="160" x2="200" y2="160" stroke="white" stroke-width="0.5"/>
  <line x1="0" y1="168" x2="200" y2="168" stroke="white" stroke-width="0.5"/>
  <line x1="0" y1="176" x2="200" y2="176" stroke="white" stroke-width="0.5"/>
  <line x1="0" y1="184" x2="200" y2="184" stroke="white" stroke-width="0.5"/>
  <line x1="0" y1="192" x2="200" y2="192" stroke="white" stroke-width="0.5"/>
  <line x1="0" y1="200" x2="200" y2="200" stroke="white" stroke-width="0.5"/>
  <line x1="0" y1="208" x2="200" y2="208" stroke="white" stroke-width="0.5"/>
  <line x1="0" y1="216" x2="200" y2="216" stroke="white" stroke-width="0.5"/>
  <line x1="0" y1="224" x2="200" y2="224" stroke="white" stroke-width="0.5"/>
  <line x1="0" y1="232" x2="200" y2="232" stroke="white" stroke-width="0.5"/>
  <line x1="0" y1="240" x2="200" y2="240" stroke="white" stroke-width="0.5"/>
  <line x1="0" y1="248" x2="200" y2="248" stroke="white" stroke-width="0.5"/>
  <line x1="0" y1="256" x2="200" y2="256" stroke="white" stroke-width="0.5"/>
  <line x1="0" y1="264" x2="200" y2="264" stroke="white" stroke-width="0.5"/>
  <line x1="0" y1="272" x2="200" y2="272" stroke="white" stroke-width="0.5"/>
</g>
<rect width="200" height="280" fill="url(#v)" rx="10"/>
<!-- neon frame -->
<rect x="5" y="5" width="190" height="270" rx="8" fill="none" stroke="url(#fr)" stroke-width="2" filter="url(#glow)"/>
<rect x="5" y="5" width="190" height="270" rx="8" fill="none" stroke="#ff0060" stroke-width="0.6" stroke-opacity="0.8"/>
<g fill="#ff0060" opacity="0.9"><polygon points="9,9 20,9 9,20"/><polygon points="191,9 180,9 191,20"/><polygon points="9,271 20,271 9,260"/><polygon points="191,271 180,271 191,260"/></g>
<rect x="52" y="257" width="96" height="16" rx="4" fill="rgba(0,0,0,0.6)"/>
<text x="100" y="268.5" font-size="8.5" font-family="'Courier New',monospace" font-weight="bold" text-anchor="middle" fill="#ff0060" letter-spacing="2.5">PEAKS</text>
</svg>