<svg xmlns="http://www.w3.org/2000/svg" width="200" height="130" viewBox="0 0 200 130">
<defs>
  <linearGradient id="bg" x1="0" y1="0" x2="1" y2="1">
    <stop offset="0%" stop-color="#050410"/><stop offset="100%" stop-color="#010104"/>
  </linearGradient>
  <radialGradient id="glow" cx="50%" cy="50%" r="55%">
    <stop offset="0%" stop-color="#6040b0" stop-opacity="0.35"/><stop offset="100%" stop-color="#030208" stop-opacity="0"/>
  </radialGradient>
</defs>
<rect width="200" height="130" fill="url(#bg)" rx="8"/>
<ellipse cx="100" cy="65" rx="85" ry="55" fill="url(#glow)"/>
<rect x="18" y="22" width="28" height="40" rx="4" fill="#101828"/><rect x="18" y="22" width="28" height="40" rx="4" fill="none" stroke="#c0d0e4" stroke-width="1.2"/>
<rect x="52" y="22" width="28" height="40" rx="4" fill="#200400"/><rect x="52" y="22" width="28" height="40" rx="4" fill="none" stroke="#e04020" stroke-width="1.2"/>
<rect x="86" y="22" width="28" height="40" rx="4" fill="#001828"/><rect x="86" y="22" width="28" height="40" rx="4" fill="none" stroke="#20c0d8" stroke-width="1.2"/>
<rect x="120" y="22" width="28" height="40" rx="4" fill="#001800"/><rect x="120" y="22" width="28" height="40" rx="4" fill="none" stroke="#40d070" stroke-width="1.2"/>
<rect x="154" y="22" width="28" height="40" rx="4" fill="#040008"/><rect x="154" y="22" width="28" height="40" rx="4" fill="none" stroke="#8040c0" stroke-width="1.2"/>
<!-- tiny crystal in each card -->
<polygon points="32,35 36,28 40,35 36,38" fill="#c0d0e4" opacity="0.6"/>
<polygon points="66,35 70,28 74,35 70,38" fill="#e04020" opacity="0.6"/>
<polygon points="100,35 104,28 108,35 104,38" fill="#20c0d8" opacity="0.6"/>
<polygon points="134,35 138,28 142,35 138,38" fill="#40d070" opacity="0.6"/>
<polygon points="168,35 172,28 176,35 172,38" fill="#8040c0" opacity="0.6"/>
<text x="100" y="92" font-size="13" font-family="Georgia,serif" font-weight="bold" text-anchor="middle" fill="#9070d8" letter-spacing="3">OBSIDIAN</text>
<text x="100" y="110" font-size="7.5" font-family="Georgia,serif" text-anchor="middle" fill="#4030808" letter-spacing="1.5">DARK CRYSTAL GEOMETRY</text>
</svg>