<svg xmlns="http://www.w3.org/2000/svg" width="200" height="280" viewBox="0 0 200 280">
<defs>
  <linearGradient id="sky" x1="0" y1="0" x2="0" y2="1">
    <stop offset="0%" stop-color="#02040f"/>
    <stop offset="55%" stop-color="#060e28"/>
    <stop offset="100%" stop-color="#0a1840"/>
  </linearGradient>
  <linearGradient id="water" x1="0" y1="0" x2="0" y2="1">
    <stop offset="0%" stop-color="#0a2060"/>
    <stop offset="100%" stop-color="#040c28"/>
  </linearGradient>
  <radialGradient id="mg" cx="50%" cy="30%" r="32%">
    <stop offset="0%" stop-color="#d8f0ff" stop-opacity="0.9"/>
    <stop offset="40%" stop-color="#6098d8" stop-opacity="0.35"/>
    <stop offset="100%" stop-color="#102060" stop-opacity="0"/>
  </radialGradient>
  <radialGradient id="vig" cx="50%" cy="50%" r="70%">
    <stop offset="0%" stop-color="rgba(0,0,0,0)"/>
    <stop offset="100%" stop-color="rgba(0,0,0,0.5)"/>
  </radialGradient>
  <linearGradient id="fr" x1="0" y1="0" x2="1" y2="1">
    <stop offset="0%" stop-color="#6890d8"/>
    <stop offset="50%" stop-color="#3860a8"/>
    <stop offset="100%" stop-color="#183888"/>
  </linearGradient>
  <linearGradient id="ref" x1="0" y1="0" x2="0" y2="1">
    <stop offset="0%" stop-color="#c0d8ff" stop-opacity="0.5"/>
    <stop offset="100%" stop-color="#3060a8" stop-opacity="0"/>
  </linearGradient>
</defs>
<rect width="200" height="280" fill="url(#sky)" rx="10"/>
<g fill="#d8eeff" opacity="0.9">
  <circle cx="18"  cy="20"  r="0.8"/> <circle cx="42"  cy="14"  r="1.1"/>
  <circle cx="68"  cy="30"  r="0.7"/> <circle cx="85"  cy="18"  r="0.9"/>
  <circle cx="130" cy="24"  r="1.2"/> <circle cx="155" cy="16"  r="0.8"/>
  <circle cx="172" cy="35"  r="1"/>   <circle cx="188" cy="12"  r="0.7"/>
  <circle cx="30"  cy="48"  r="0.9"/> <circle cx="55"  cy="55"  r="0.6"/>
  <circle cx="160" cy="50"  r="0.8"/> <circle cx="178" cy="58"  r="1.1"/>
  <circle cx="14"  cy="65"  r="0.7"/> <circle cx="190" cy="78"  r="0.8"/>
</g>
<g fill="#a8c4ff" opacity="0.6">
  <circle cx="28"  cy="38"  r="0.6"/> <circle cx="78"  cy="46"  r="0.5"/>
  <circle cx="108" cy="22"  r="0.6"/> <circle cx="145" cy="40"  r="0.5"/>
  <circle cx="168" cy="28"  r="0.6"/>
</g>
<ellipse cx="100" cy="84" rx="44" ry="44" fill="url(#mg)"/>
<circle cx="100" cy="84" r="20" fill="#e8f4ff" opacity="0.95"/>
<circle cx="100" cy="84" r="18" fill="#d8ecff"/>
<circle cx="93"  cy="80" r="3"   fill="#c0d8f0" opacity="0.5"/>
<circle cx="108" cy="90" r="2"   fill="#c0d8f0" opacity="0.4"/>
<circle cx="104" cy="76" r="1.5" fill="#c0d8f0" opacity="0.4"/>
<path d="M0 168 Q25 160 50 165 Q75 170 100 162 Q125 155 150 163 Q175 170 200 164 L200 168 Z" fill="#0a1840"/>
<rect x="0" y="168" width="200" height="112" fill="url(#water)"/>
<path d="M82 168 L118 168 L128 280 L72 280 Z" fill="url(#ref)" opacity="0.35"/>
<g stroke="#2050a0" stroke-width="1" fill="none" opacity="0.6">
  <path d="M10  180 Q30  176 50  180 Q70  184 90  180 Q110 176 130 180 Q150 184 170 180 Q185 177 200 180"/>
  <path d="M0   192 Q22  188 44  192 Q66  196 88  192 Q110 188 132 192 Q154 196 176 192 Q190 189 200 192"/>
  <path d="M5   205 Q28  200 52  205 Q76  210 100 205 Q124 200 148 205 Q172 210 196 205"/>
</g>
<g stroke="#3868c0" stroke-width="1.2" fill="none" opacity="0.55">
  <path d="M0   220 Q24  214 48  220 Q72  226 96  220 Q120 214 144 220 Q168 226 200 220"/>
  <path d="M0   238 Q28  232 56  238 Q84  244 112 238 Q140 232 168 238 Q184 242 200 240"/>
</g>
<g fill="#8ab8f8" opacity="0.45">
  <ellipse cx="40"  cy="256" rx="6" ry="1.4"/>
  <ellipse cx="100" cy="248" rx="8" ry="1.6"/>
  <ellipse cx="160" cy="260" rx="5" ry="1.2"/>
  <ellipse cx="75"  cy="268" rx="4" ry="1"/>
  <ellipse cx="130" cy="272" rx="6" ry="1.3"/>
</g>
<ellipse cx="30"  cy="167" rx="12" ry="4" fill="#060e20" opacity="0.8"/>
<ellipse cx="170" cy="165" rx="10" ry="3" fill="#060e20" opacity="0.8"/>
<rect width="200" height="280" fill="url(#vig)" rx="10"/>
<rect x="5" y="5" width="190" height="270" rx="8" fill="none" stroke="url(#fr)" stroke-width="2.5"/>
<rect x="9" y="9" width="182" height="262" rx="6" fill="none" stroke="#6890d8" stroke-width="0.7" stroke-opacity="0.45"/>
<g fill="#2850a8" opacity="0.85">
  <polygon points="9,9 20,9 9,20"/>   <polygon points="191,9 180,9 191,20"/>
  <polygon points="9,271 20,271 9,260"/> <polygon points="191,271 180,271 191,260"/>
</g>
<rect x="62" y="257" width="76" height="16" rx="4" fill="rgba(0,0,0,0.55)"/>
<text x="100" y="268.5" font-size="8.5" font-family="Georgia,serif" font-weight="bold" text-anchor="middle" fill="#90c8f8" letter-spacing="2.5">SHORES</text>
</svg>