<svg xmlns="http://www.w3.org/2000/svg" width="200" height="280" viewBox="0 0 200 280">
<defs>
  <linearGradient id="sky" x1="0" y1="0" x2="0" y2="1">
    <stop offset="0%" stop-color="#0a1a08"/>
    <stop offset="40%" stop-color="#122810"/>
    <stop offset="100%" stop-color="#1a3c14"/>
  </linearGradient>
  <radialGradient id="lp" cx="50%" cy="45%" r="35%">
    <stop offset="0%" stop-color="#b0e870" stop-opacity="0.3"/>
    <stop offset="100%" stop-color="#204010" stop-opacity="0"/>
  </radialGradient>
  <radialGradient id="vig" cx="50%" cy="50%" r="68%">
    <stop offset="0%" stop-color="rgba(0,0,0,0)"/>
    <stop offset="100%" stop-color="rgba(0,0,0,0.6)"/>
  </radialGradient>
  <linearGradient id="fr" x1="0" y1="0" x2="1" y2="1">
    <stop offset="0%" stop-color="#60c040"/>
    <stop offset="50%" stop-color="#308828"/>
    <stop offset="100%" stop-color="#185010"/>
  </linearGradient>
  <linearGradient id="gd" x1="0" y1="0" x2="0" y2="1">
    <stop offset="0%" stop-color="#203c10"/>
    <stop offset="100%" stop-color="#101808"/>
  </linearGradient>
</defs>
<rect width="200" height="280" fill="url(#sky)" rx="10"/>
<ellipse cx="100" cy="126" rx="60" ry="60" fill="url(#lp)"/>
<polygon points="82,0 90,160 110,160 118,0"   fill="rgba(180,240,120,0.055)"/>
<polygon points="44,0 38,160 60,160 70,0"     fill="rgba(160,220,100,0.04)"/>
<polygon points="130,0 140,0 162,160 140,160" fill="rgba(160,220,100,0.04)"/>
<g fill="#0a1a06" opacity="0.9">
  <rect x="8"   y="90"  width="10" height="110"/> <ellipse cx="13"  cy="88"  rx="14" ry="24"/>
  <rect x="26"  y="100" width="8"  height="100"/> <ellipse cx="30"  cy="98"  rx="12" ry="20"/>
  <rect x="164" y="92"  width="10" height="108"/> <ellipse cx="169" cy="90"  rx="14" ry="23"/>
  <rect x="182" y="102" width="8"  height="98"/>  <ellipse cx="186" cy="100" rx="11" ry="19"/>
</g>
<g fill="#122808">
  <rect x="55"  y="80"  width="12" height="130"/> <ellipse cx="61"  cy="76"  rx="20" ry="32"/>
  <ellipse cx="61"  cy="64"  rx="14" ry="22"/>
  <rect x="128" y="82"  width="12" height="128"/> <ellipse cx="134" cy="78"  rx="20" ry="32"/>
  <ellipse cx="134" cy="66"  rx="14" ry="22"/>
</g>
<g fill="#0c1e06">
  <rect x="14"  y="60"  width="16" height="220"/> <ellipse cx="22"  cy="55"  rx="26" ry="42"/>
  <ellipse cx="22"  cy="36"  rx="18" ry="28"/>
  <rect x="170" y="62"  width="16" height="218"/> <ellipse cx="178" cy="57"  rx="26" ry="42"/>
  <ellipse cx="178" cy="38"  rx="18" ry="28"/>
</g>
<rect x="92" y="148" width="16" height="132" fill="#0e2008"/>
<ellipse cx="100" cy="144" rx="28" ry="44" fill="#142e0a"/>
<ellipse cx="100" cy="124" rx="20" ry="30" fill="#1a3810"/>
<path d="M0 240 Q50 224 100 234 Q150 244 200 228 L200 280 L0 280 Z" fill="url(#gd)"/>
<g fill="#2a6018" opacity="0.7">
  <ellipse cx="45"  cy="242" rx="6" ry="3"/>   <ellipse cx="80"  cy="248" rx="5" ry="2.5"/>
  <ellipse cx="122" cy="244" rx="6" ry="3"/>   <ellipse cx="158" cy="240" rx="5" ry="2.5"/>
</g>
<g fill="#48a028" opacity="0.5">
  <circle cx="35"  cy="240" r="2"/> <circle cx="68"  cy="246" r="1.5"/>
  <circle cx="110" cy="242" r="2"/> <circle cx="148" cy="238" r="1.5"/>
  <circle cx="175" cy="243" r="2"/>
</g>
<g fill="#c0ff80" opacity="0.7">
  <circle cx="72"  cy="108" r="1.2"/> <circle cx="130" cy="114" r="1"/>
  <circle cx="95"  cy="90"  r="1.4"/> <circle cx="110" cy="136" r="1"/>
  <circle cx="60"  cy="130" r="1.2"/>
</g>
<path d="M0 0 Q50 50 0 80 L0 0 Z"        fill="#0a1a06" opacity="0.6"/>
<path d="M200 0 Q150 50 200 80 L200 0 Z" fill="#0a1a06" opacity="0.6"/>
<rect width="200" height="280" fill="url(#vig)" rx="10"/>
<rect x="5" y="5" width="190" height="270" rx="8" fill="none" stroke="url(#fr)" stroke-width="2.5"/>
<rect x="9" y="9" width="182" height="262" rx="6" fill="none" stroke="#60c040" stroke-width="0.7" stroke-opacity="0.4"/>
<g fill="#289020" opacity="0.85">
  <polygon points="9,9 20,9 9,20"/>   <polygon points="191,9 180,9 191,20"/>
  <polygon points="9,271 20,271 9,260"/> <polygon points="191,271 180,271 191,260"/>
</g>
<rect x="58" y="257" width="84" height="16" rx="4" fill="rgba(0,0,0,0.55)"/>
<text x="100" y="268.5" font-size="8.5" font-family="Georgia,serif" font-weight="bold" text-anchor="middle" fill="#90e870" letter-spacing="2.5">WOODS</text>
</svg>