<svg xmlns="http://www.w3.org/2000/svg" width="200" height="280" viewBox="0 0 200 280">
<defs>
  <linearGradient id="sky" x1="0" y1="0" x2="0" y2="1">
    <stop offset="0%" stop-color="#ffe0a0"/>
    <stop offset="45%" stop-color="#f8c840"/>
    <stop offset="75%" stop-color="#e89018"/>
    <stop offset="100%" stop-color="#c06010"/>
  </linearGradient>
  <radialGradient id="sun" cx="50%" cy="42%" r="28%">
    <stop offset="0%" stop-color="#fff8d0"/>
    <stop offset="40%" stop-color="#ffe860" stop-opacity="0.6"/>
    <stop offset="100%" stop-color="#ff8800" stop-opacity="0"/>
  </radialGradient>
  <radialGradient id="vig" cx="50%" cy="50%" r="70%">
    <stop offset="0%" stop-color="rgba(0,0,0,0)"/>
    <stop offset="100%" stop-color="rgba(0,0,0,0.45)"/>
  </radialGradient>
  <linearGradient id="fr" x1="0" y1="0" x2="1" y2="1">
    <stop offset="0%" stop-color="#e8d070"/>
    <stop offset="50%" stop-color="#c8a030"/>
    <stop offset="100%" stop-color="#a07820"/>
  </linearGradient>
</defs>
<rect width="200" height="280" fill="url(#sky)" rx="10"/>
<ellipse cx="100" cy="118" rx="56" ry="56" fill="url(#sun)"/>
<circle cx="100" cy="118" r="17" fill="#fff8c0" opacity="0.95"/>
<circle cx="100" cy="118" r="13" fill="#ffe840"/>
<g stroke="#ffe080" stroke-width="1.5" stroke-linecap="round" opacity="0.65">
  <line x1="100" y1="94"  x2="100" y2="86"/>
  <line x1="116" y1="100" x2="122" y2="94"/>
  <line x1="123" y1="118" x2="131" y2="118"/>
  <line x1="116" y1="136" x2="122" y2="142"/>
  <line x1="100" y1="142" x2="100" y2="150"/>
  <line x1="84"  y1="136" x2="78"  y2="142"/>
  <line x1="77"  y1="118" x2="69"  y2="118"/>
  <line x1="84"  y1="100" x2="78"  y2="94"/>
</g>
<polygon points="75,0 125,0 145,200 55,200" fill="rgba(255,240,140,0.055)"/>
<g opacity="0.88">
  <ellipse cx="38"  cy="88"  rx="20" ry="8"  fill="#fffef0"/>
  <ellipse cx="52"  cy="84"  rx="16" ry="9"  fill="#ffffff"/>
  <ellipse cx="26"  cy="86"  rx="13" ry="6"  fill="#fffef0"/>
  <ellipse cx="158" cy="95"  rx="18" ry="7"  fill="#fffef0"/>
  <ellipse cx="171" cy="91"  rx="14" ry="8"  fill="#ffffff"/>
  <ellipse cx="145" cy="93"  rx="11" ry="5"  fill="#fffef0"/>
</g>
<path d="M0 200 Q35 174 70 183 Q105 192 140 175 Q168 163 200 178 L200 280 L0 280 Z" fill="#8aba5a" opacity="0.55"/>
<path d="M0 216 Q30 196 62 204 Q90 210 122 196 Q150 185 178 200 Q192 206 200 200 L200 280 L0 280 Z" fill="#7aaa48"/>
<path d="M0 240 Q45 222 78 230 Q110 238 142 225 Q168 216 200 228 L200 280 L0 280 Z" fill="#69993a"/>
<rect x="0" y="260" width="200" height="20" fill="#527a28"/>
<g stroke="#3d6018" stroke-width="1.3" stroke-linecap="round" opacity="0.65">
  <line x1="22" y1="260" x2="20" y2="252"/> <line x1="26" y1="260" x2="28" y2="251"/>
  <line x1="58" y1="256" x2="56" y2="248"/> <line x1="62" y1="256" x2="64" y2="247"/>
  <line x1="98" y1="260" x2="96" y2="251"/> <line x1="102" y1="260" x2="104" y2="250"/>
  <line x1="142" y1="256" x2="140" y2="248"/> <line x1="146" y1="256" x2="148" y2="247"/>
  <line x1="174" y1="260" x2="172" y2="252"/> <line x1="178" y1="260" x2="180" y2="251"/>
</g>
<rect width="200" height="280" fill="url(#vig)" rx="10"/>
<rect x="5" y="5" width="190" height="270" rx="8" fill="none" stroke="url(#fr)" stroke-width="2.5"/>
<rect x="9" y="9" width="182" height="262" rx="6" fill="none" stroke="#e8d070" stroke-width="0.7" stroke-opacity="0.5"/>
<g fill="#d4a830" opacity="0.85">
  <polygon points="9,9 20,9 9,20"/>
  <polygon points="191,9 180,9 191,20"/>
  <polygon points="9,271 20,271 9,260"/>
  <polygon points="191,271 180,271 191,260"/>
</g>
<rect x="52" y="257" width="96" height="16" rx="4" fill="rgba(0,0,0,0.5)"/>
<text x="100" y="268.5" font-size="8.5" font-family="Georgia,serif" font-weight="bold" text-anchor="middle" fill="#f5dfa0" letter-spacing="2.5">FIELDS</text>
</svg>