<svg xmlns="http://www.w3.org/2000/svg" width="200" height="280" viewBox="0 0 200 280">
<defs>
  <linearGradient id="s" x1="0" y1="0" x2="0" y2="1">
    <stop offset="0%" stop-color="#020002"/><stop offset="50%" stop-color="#0c0204"/><stop offset="100%" stop-color="#180606"/>
  </linearGradient>
  <radialGradient id="giant" cx="50%" cy="36%" r="32%">
    <stop offset="0%" stop-color="#ffcc88"/><stop offset="28%" stop-color="#ff6622"/><stop offset="65%" stop-color="#cc2200" stop-opacity="0.8"/><stop offset="100%" stop-color="#440000" stop-opacity="0"/>
  </radialGradient>
  <radialGradient id="corona" cx="50%" cy="36%" r="42%">
    <stop offset="0%" stop-color="#ff3300" stop-opacity="0"/><stop offset="55%" stop-color="#aa1800" stop-opacity="0.25"/><stop offset="100%" stop-color="#660000" stop-opacity="0.45"/>
  </radialGradient>
  <filter id="g"><feGaussianBlur stdDeviation="3.5" result="b"/><feMerge><feMergeNode in="b"/><feMergeNode in="SourceGraphic"/></feMerge></filter>
  <radialGradient id="v" cx="50%" cy="50%" r="70%">
    <stop offset="0%" stop-color="rgba(0,0,0,0)"/><stop offset="100%" stop-color="rgba(0,0,0,0.58)"/>
  </radialGradient>
  <linearGradient id="fr" x1="0" y1="0" x2="1" y2="1">
    <stop offset="0%" stop-color="#ff6644"/><stop offset="100%" stop-color="#661100"/>
  </linearGradient>
</defs>
<rect width="200" height="280" fill="url(#s)" rx="10"/>
<g fill="#ff8866" opacity="0.45">
  <circle cx="25" cy="12" r="0.6"/><circle cx="60" cy="22" r="0.5"/><circle cx="155" cy="15" r="0.7"/>
  <circle cx="185" cy="28" r="0.5"/><circle cx="12" cy="44" r="0.6"/><circle cx="180" cy="50" r="0.6"/>
</g>
<g fill="white" opacity="0.25">
  <circle cx="80" cy="10" r="0.5"/><circle cx="140" cy="8" r="0.6"/>
  <circle cx="170" cy="205" r="0.7"/><circle cx="20" cy="195" r="0.5"/>
</g>
<!-- Corona haze -->
<ellipse cx="100" cy="100" rx="72" ry="72" fill="url(#corona)"/>
<!-- Red giant star -->
<circle cx="100" cy="100" r="48" fill="url(#giant)" filter="url(#g)"/>
<!-- Surface convection cells -->
<ellipse cx="82" cy="68" rx="14" ry="9" fill="#ff9955" opacity="0.35"/>
<ellipse cx="118" cy="74" rx="10" ry="7" fill="#ffaa66" opacity="0.28"/>
<ellipse cx="130" cy="102" rx="9" ry="6" fill="#ff6622" opacity="0.3"/>
<!-- Solar prominence -->
<path d="M136 90 Q150 76 144 62 Q154 58 147 72 Q157 70 149 82 Q150 95 136 90Z" fill="#ff5500" opacity="0.5"/>
<!-- Silhouetted dead planet -->
<circle cx="65" cy="215" r="22" fill="#060002"/>
<circle cx="65" cy="215" r="22" fill="none" stroke="#881100" stroke-width="0.8" stroke-opacity="0.3"/>
<ellipse cx="65" cy="215" rx="37" ry="9" fill="none" stroke="#882200" stroke-width="1.2" stroke-opacity="0.35"/>
<rect width="200" height="280" fill="url(#v)" rx="10"/>
<rect x="5" y="5" width="190" height="270" rx="8" fill="none" stroke="url(#fr)" stroke-width="2" filter="url(#g)"/>
<rect x="5" y="5" width="190" height="270" rx="8" fill="none" stroke="#ff6644" stroke-width="0.6" stroke-opacity="0.7"/>
<g fill="#cc4422" opacity="0.9"><polygon points="9,9 20,9 9,20"/><polygon points="191,9 180,9 191,20"/><polygon points="9,271 20,271 9,260"/><polygon points="191,271 180,271 191,260"/></g>
<rect x="52" y="257" width="96" height="16" rx="4" fill="rgba(0,0,0,0.65)"/>
<text x="100" y="268.5" font-size="8.5" font-family="'Courier New',monospace" font-weight="bold" text-anchor="middle" fill="#ffaa88" letter-spacing="2.5">GIANT</text>
</svg>
